# Blender v2.92.0 OBJ File: ''
# www.blender.org
mtllib player_N.mtl
o 立方体
v -0.250443 3.315754 0.250443
v -0.250443 3.816639 0.250443
v -0.250443 3.315754 -0.250443
v -0.250443 3.816639 -0.250443
v 0.250443 3.315754 0.250443
v 0.250443 3.816639 0.250443
v 0.250443 3.315754 -0.250443
v 0.250443 3.816639 -0.250443
vt 0.375000 0.000000
vt 0.625000 0.000000
vt 0.625000 0.250000
vt 0.375000 0.250000
vt 0.625000 0.500000
vt 0.375000 0.500000
vt 0.625000 0.750000
vt 0.375000 0.750000
vt 0.625000 1.000000
vt 0.375000 1.000000
vt 0.125000 0.500000
vt 0.125000 0.750000
vt 0.875000 0.500000
vt 0.875000 0.750000
vn -1.0000 0.0000 0.0000
vn 0.0000 0.0000 -1.0000
vn 1.0000 0.0000 0.0000
vn 0.0000 0.0000 1.0000
vn 0.0000 -1.0000 0.0000
vn 0.0000 1.0000 0.0000
usemtl マテリアル.001
s off
f 1/1/1 2/2/1 4/3/1 3/4/1
f 3/4/2 4/3/2 8/5/2 7/6/2
f 7/6/3 8/5/3 6/7/3 5/8/3
f 5/8/4 6/7/4 2/9/4 1/10/4
f 3/11/5 7/6/5 5/8/5 1/12/5
f 8/5/6 4/13/6 2/14/6 6/7/6
o 立方体.001
v -0.406315 0.667615 0.406315
v -0.406315 2.703979 0.406315
v -0.406315 0.667615 -0.406315
v -0.406315 2.703979 -0.406315
v 0.406315 0.667615 0.406315
v 0.406315 2.703979 0.406315
v 0.406315 0.667615 -0.406315
v 0.406315 2.703979 -0.406315
vt 0.375000 0.000000
vt 0.625000 0.000000
vt 0.625000 0.250000
vt 0.375000 0.250000
vt 0.625000 0.500000
vt 0.375000 0.500000
vt 0.625000 0.750000
vt 0.375000 0.750000
vt 0.625000 1.000000
vt 0.375000 1.000000
vt 0.125000 0.500000
vt 0.125000 0.750000
vt 0.875000 0.500000
vt 0.875000 0.750000
vn -1.0000 0.0000 0.0000
vn 0.0000 0.0000 -1.0000
vn 1.0000 0.0000 0.0000
vn 0.0000 0.0000 1.0000
vn 0.0000 -1.0000 0.0000
vn 0.0000 1.0000 0.0000
usemtl マテリアル.001
s off
f 9/15/7 10/16/7 12/17/7 11/18/7
f 11/18/8 12/17/8 16/19/8 15/20/8
f 15/20/9 16/19/9 14/21/9 13/22/9
f 13/22/10 14/21/10 10/23/10 9/24/10
f 11/25/11 15/20/11 13/22/11 9/26/11
f 16/19/12 12/27/12 10/28/12 14/21/12
o 立方体.002
v -0.184688 1.224141 -1.140209
v 0.069995 1.968954 -0.773203
v -0.354514 1.402407 -1.384138
v -0.099831 2.147220 -1.017133
v 0.099831 1.224374 -1.338124
v 0.354514 1.969187 -0.971118
v -0.069995 1.402640 -1.582053
v 0.184688 2.147454 -1.215048
vt 0.375000 0.000000
vt 0.625000 0.000000
vt 0.625000 0.250000
vt 0.375000 0.250000
vt 0.625000 0.500000
vt 0.375000 0.500000
vt 0.625000 0.750000
vt 0.375000 0.750000
vt 0.625000 1.000000
vt 0.375000 1.000000
vt 0.125000 0.500000
vt 0.125000 0.750000
vt 0.875000 0.500000
vt 0.875000 0.750000
vn -0.8209 -0.0007 0.5710
vn -0.4900 0.5144 -0.7038
vn 0.8209 0.0007 -0.5710
vn 0.4900 -0.5144 0.7038
vn -0.2932 -0.8576 -0.4226
vn 0.2932 0.8576 0.4226
usemtl マテリアル.001
s off
f 17/29/13 18/30/13 20/31/13 19/32/13
f 19/32/14 20/31/14 24/33/14 23/34/14
f 23/34/15 24/33/15 22/35/15 21/36/15
f 21/36/16 22/35/16 18/37/16 17/38/16
f 19/39/17 23/34/17 21/36/17 17/40/17
f 24/33/18 20/41/18 18/42/18 22/35/18
o 立方体.003
v -0.180269 1.222319 1.426178
v 0.106588 1.886742 0.946014
v 0.084938 1.265955 1.644998
v 0.371796 1.930378 1.164834
v -0.371796 1.441216 1.614654
v -0.084938 2.105639 1.134490
v -0.106588 1.484852 1.833475
v 0.180269 2.149275 1.353311
vt 0.375000 0.000000
vt 0.625000 0.000000
vt 0.625000 0.250000
vt 0.375000 0.250000
vt 0.625000 0.500000
vt 0.375000 0.500000
vt 0.625000 0.750000
vt 0.375000 0.750000
vt 0.625000 1.000000
vt 0.375000 1.000000
vt 0.125000 0.500000
vt 0.125000 0.750000
vt 0.875000 0.500000
vt 0.875000 0.750000
vn 0.5526 -0.6316 -0.5438
vn 0.7652 0.1259 0.6314
vn -0.5526 0.6316 0.5438
vn -0.7652 -0.1259 -0.6314
vn -0.3303 -0.7650 0.5529
vn 0.3303 0.7650 -0.5529
usemtl マテリアル.001
s off
f 25/43/19 26/44/19 28/45/19 27/46/19
f 27/46/20 28/45/20 32/47/20 31/48/20
f 31/48/21 32/47/21 30/49/21 29/50/21
f 29/50/22 30/49/22 26/51/22 25/52/22
f 27/53/23 31/48/23 29/50/23 25/54/23
f 32/47/24 28/55/24 26/56/24 30/49/24
